<svg viewBox="0 0 106 94" fill="none" xmlns="http://www.w3.org/2000/svg">
    <path
        d="M0.242676 81.518C0.242676 88.183 6.3481 93.585 13.8792 93.585H92.3631C99.8954 93.585 106 88.1823 106 81.518V12.0673C106 5.40197 99.8946 0 92.3635 0H13.8796C6.34727 0 0.242676 5.4027 0.242676 12.067V81.5176V81.518Z"
        fill="#563D7C" />
    <path
        d="M44.098 41.3959V28.1431H57.2809C58.5368 28.1431 59.7472 28.2356 60.913 28.4209C62.0788 28.6059 63.1104 28.9364 64.0073 29.4127C64.9037 29.889 65.6213 30.5503 66.1596 31.3966C66.6975 32.2433 66.9668 33.3279 66.9668 34.6501C66.9668 37.0311 66.1596 38.7507 64.5451 39.8086C62.9311 40.867 60.8684 41.3959 58.3571 41.3959H44.098ZM30.0178 18.4611V75.1238H61.0477C63.9176 75.1238 66.7128 74.8065 69.4331 74.1715C72.1535 73.5365 74.5748 72.5579 76.6973 71.2353C78.8195 69.9126 80.5087 68.2062 81.7642 66.1166C83.0201 64.0267 83.6476 61.5532 83.6476 58.6963C83.6476 55.1515 82.6759 52.1227 80.7331 49.6098C78.7898 47.0966 75.8451 45.3375 71.899 44.3322C74.7689 43.1156 76.9365 41.5546 78.4014 39.65C79.8659 37.7454 80.5984 35.3648 80.5984 32.5076C80.5984 29.8623 80.1051 27.6404 79.1186 25.8415C78.1321 24.0429 76.742 22.6011 74.9482 21.5165C73.1549 20.4318 71.0025 19.6513 68.4912 19.1754C65.9803 18.699 63.2 18.4611 60.1508 18.4611H30.0178ZM44.098 65.4418V49.8873H59.4333C62.4825 49.8873 64.9339 50.5088 66.7875 51.7524C68.6408 52.9957 69.5678 55.0721 69.5678 57.982C69.5678 59.4637 69.2836 60.6803 68.7155 61.6326C68.1475 62.5849 67.3853 63.339 66.4285 63.8943C65.4722 64.45 64.3659 64.8466 63.1104 65.085C61.8545 65.3226 60.5396 65.4418 59.1643 65.4418H44.098Z"
        fill="white" />
</svg>