<svg viewBox="0 0 112 112" fill="none" xmlns="http://www.w3.org/2000/svg">
    <path d="M56.1437 111.975L10.5781 100.781L0.423828 0H112L101.835 100.766L56.1437 111.975Z" fill="#264DE4" />
    <path d="M93.1329 94.3493L101.819 8.24023H56.2119V103.407L93.1329 94.3493Z" fill="#2965F1" />
    <path
        d="M23.7023 45.6185L24.954 57.9789H56.212V45.6185H23.7023ZM21.1866 20.6008L22.4562 32.9612H56.212V20.6008H21.1866ZM56.212 77.7198L56.1508 77.7341L40.5946 74.0172L39.6 64.1593H25.5781L27.5349 83.567L56.1477 90.5953L56.212 90.5799V77.7198Z"
        fill="#EBEBEB" />
    <path
        d="M88.6325 45.6185L91.1539 20.6008H56.1639V32.9613H75.8462L74.5752 45.6185H56.1639V57.979H73.3641L71.7424 74.0096L56.1634 77.7304V90.5897L84.799 83.5671L85.009 81.4788L88.2918 48.9377L88.6325 45.6185Z"
        fill="white" />
</svg>