<svg viewBox="0 0 112 113" fill="none" xmlns="http://www.w3.org/2000/svg">
    <path d="M10.1776 101.021L0 0H111.783L101.593 101.029L55.8644 112.247L10.1776 101.021Z" fill="#E34E26" />
    <path d="M55.8917 8.25732V103.666L92.8691 94.5958L101.581 8.25732H55.8917Z" fill="#EF662A" />
    <path
        d="M20.8235 20.6488L24.5977 58.117H73.1278L71.4992 74.1878L55.8736 77.9261L40.2776 74.1932L39.2349 63.8742H25.1803L27.19 83.7661L55.8703 90.8148L84.5868 83.7661L88.4366 45.7283H37.4038L36.1224 33.0401H89.6628H89.7056L90.9598 20.6488H20.8235Z"
        fill="white" />
    <path d="M55.8917 20.6488H20.8235L24.5977 58.1169H55.8917V45.7283H37.4038L36.1224 33.0401H55.8917V20.6488Z"
        fill="#EBEBEB" />
    <path
        d="M55.8916 77.9207L55.8735 77.926L40.2775 74.1932L39.2348 63.8743H25.1802L27.1899 83.7661L55.8702 90.8147L55.8916 90.8094V77.9207Z"
        fill="#EBEBEB" />
</svg>