<svg viewBox="0 0 229 190" fill="none" xmlns="http://www.w3.org/2000/svg">
    <path d="M0 0H228.172V189.369H0V0Z" fill="#F7DF1E" />
    <path
        d="M59.995 158.251L77.4555 149.48C80.8247 154.437 83.8889 158.632 91.2395 158.632C98.2852 158.632 102.728 156.344 102.728 147.447V86.9391H124.17V147.698C124.17 166.13 111.152 174.52 92.1584 174.52C75.0054 174.52 65.0487 167.147 59.9941 158.249L59.995 158.251ZM135.817 156.344L153.276 147.954C157.872 154.184 163.845 158.759 174.413 158.759C183.298 158.759 188.963 155.073 188.963 149.988C188.963 143.887 183.143 141.725 173.34 138.167L167.981 136.259C152.511 130.794 142.249 123.93 142.249 109.439C142.249 96.091 154.502 85.9213 173.648 85.9213C187.279 85.9213 197.082 89.8625 204.127 100.159L187.431 109.058C183.754 103.592 179.774 101.431 173.647 101.431C167.367 101.431 163.385 104.736 163.385 109.058C163.385 114.396 167.367 116.558 176.556 119.863L181.916 121.77C200.144 128.253 210.405 134.863 210.405 149.734C210.405 165.752 195.242 174.522 174.872 174.522C154.961 174.522 142.095 166.641 135.816 156.344"
        fill="black" />
</svg>