<svg viewBox="0 0 135 90" fill="none" xmlns="http://www.w3.org/2000/svg">
    <path
        d="M116.214 51.3217C111.494 51.345 107.407 52.3465 103.979 53.837C102.713 51.6245 101.448 49.6914 101.237 48.2474C100.999 46.5705 100.709 45.5458 100.999 43.5428C101.289 41.5399 102.608 38.6985 102.608 38.4656C102.581 38.256 102.318 37.2313 99.6017 37.208C96.8856 37.1847 94.5388 37.6738 94.2751 38.3026C94.0114 38.9314 93.484 40.3754 93.1412 41.866C92.6665 44.0552 87.7091 51.8108 84.8875 55.8865C83.9646 54.3028 83.1735 52.9054 83.0153 51.7875C82.778 50.1106 82.4879 49.0859 82.778 47.0829C83.068 45.08 84.3865 42.2386 84.3865 42.0057C84.3601 41.7961 84.0964 40.7713 81.3804 40.748C78.6643 40.7248 76.3174 41.2138 76.0537 41.8427C75.79 42.4715 75.5 43.9621 74.9199 45.406C74.3661 46.85 67.7737 59.7993 66.0597 63.1763C65.1895 64.8998 64.4248 66.2739 63.871 67.2055C63.3173 68.1371 63.8447 67.2754 63.7919 67.3685C63.3173 68.1604 63.0536 68.6029 63.0536 68.6029V68.6262C62.6844 69.2084 62.2889 69.7674 62.1043 69.7674C61.9724 69.7674 61.7087 68.207 62.157 66.0643C63.1327 61.5693 65.5059 54.559 65.4796 54.3028C65.4796 54.1864 65.9279 52.952 63.9501 52.3232C62.0252 51.6943 61.3396 52.7424 61.1813 52.7424C61.0231 52.7424 60.8913 53.115 60.8913 53.115C60.8913 53.115 63.0272 45.2197 56.804 45.2197C52.9013 45.2197 47.522 48.9694 44.8586 52.393C43.171 53.2082 39.5847 54.9317 35.7875 56.7716C34.3372 57.4703 32.8341 58.2155 31.4102 58.891L31.1201 58.6115C23.5785 51.508 9.62899 46.4774 10.2091 36.9285C10.4201 33.4583 11.7913 24.3053 37.0005 13.2193C57.6478 4.13616 74.1815 6.62819 77.0558 12.1712C81.1431 20.0898 68.222 34.8091 46.7572 36.9285C38.5827 37.7436 34.2845 34.9488 33.2033 33.9008C32.0694 32.8062 31.9112 32.7596 31.4893 32.9692C30.8037 33.2952 31.2256 34.2734 31.4893 34.8557C32.1222 36.3229 34.7591 38.9314 39.2419 40.2357C43.171 41.3769 52.7695 42.0057 64.3721 38.0464C77.3722 33.598 87.5245 21.2543 84.5447 10.9368C81.5122 0.433053 61.7878 -3.01387 43.1446 2.83192C32.0431 6.32542 20.0186 11.7753 11.3694 18.9253C1.08528 27.4029 -0.549629 34.8091 0.135978 37.8834C2.5356 48.853 19.6494 56.003 26.5055 61.2898C26.1627 61.4529 25.8462 61.6159 25.5562 61.7556C22.1281 63.2462 9.07524 69.2783 5.80542 75.6598C2.11369 82.8797 6.38555 88.0733 9.23345 88.772C18.0409 90.938 27.0592 87.0486 31.9376 80.6438C36.7896 74.2391 36.2094 65.9245 33.968 62.1283L33.8889 61.9885L36.5786 60.5911C38.319 59.6828 40.033 58.8444 41.5361 58.1224C40.6923 60.1486 40.0858 62.5475 39.7693 66.041C39.4002 70.14 41.2988 75.4502 43.8039 77.5463C44.9114 78.4546 46.2298 78.4779 47.0473 78.4779C49.9479 78.4779 51.2664 76.3585 52.7167 73.8199C54.5099 70.7223 56.092 67.1356 56.092 67.1356C56.092 67.1356 54.1143 76.8476 59.5201 76.8476C61.4978 76.8476 63.4755 74.5884 64.3721 73.4239V73.4472C64.3721 73.4472 64.4248 73.3773 64.5303 73.2143C64.7412 72.9348 64.8467 72.7718 64.8467 72.7718V72.7252C65.6378 71.5141 67.4045 68.7426 70.0415 64.1545C73.4432 58.2388 76.713 50.8326 76.713 50.8326C76.713 50.8326 77.0294 52.6492 78.0051 55.6304C78.5852 57.4004 79.8509 59.3335 80.8266 61.22C80.0355 62.1981 79.5609 62.7571 79.5609 62.7571L79.5873 62.7804C78.9544 63.5257 78.2424 64.3175 77.5041 65.1094C74.8144 67.9508 71.5973 71.1881 71.1754 72.1197C70.6744 73.2143 70.7798 74.0295 71.7555 74.6816C72.4675 75.1474 73.7332 75.2405 75.0781 75.1474C77.5041 75.0076 79.1917 74.472 80.0355 74.1459C81.354 73.7267 82.8571 73.0979 84.3074 72.1663C86.9443 70.4428 88.5529 67.9974 88.3947 64.7368C88.3156 62.9434 87.6563 61.1734 86.8389 59.4965C87.0762 59.1937 87.3135 58.891 87.5508 58.5649C91.7172 53.1849 94.9343 47.2692 94.9343 47.2692C94.9343 47.2692 95.2507 49.0859 96.2264 52.067C96.7274 53.5808 97.7295 55.2344 98.626 56.8647C94.7233 59.6828 92.271 62.9434 91.4272 65.0861C89.8714 69.0454 91.0844 70.8387 93.3785 71.258C94.4069 71.4443 95.8836 71.025 96.9911 70.6058C98.3623 70.2099 100.024 69.5345 101.553 68.533C104.19 66.8096 106.721 64.4107 106.59 61.1734C106.511 59.6828 106.062 58.2155 105.456 56.8181C108.778 55.6071 113.077 54.9084 118.535 55.4906C130.269 56.7017 132.59 63.1763 132.142 65.878C131.693 68.5796 129.241 70.0702 128.424 70.536C127.606 70.9785 127.342 71.1415 127.422 71.4676C127.527 71.9566 127.896 71.9334 128.608 71.8402C129.584 71.7005 134.779 69.6276 134.99 64.6436C135.306 58.2388 128.424 51.2518 116.214 51.3217ZM25.7144 78.2682C21.8381 82.0179 16.3796 83.4386 14.0591 82.2275C11.554 80.9466 12.5296 75.4269 17.3025 71.4443C20.2032 69.0221 23.974 66.7863 26.4527 65.4122C27.0065 65.1094 27.8503 64.6669 28.8524 64.1312C29.0106 64.0381 29.116 63.9915 29.116 63.9915C29.3006 63.8983 29.5116 63.7819 29.7225 63.6654C31.4893 69.3482 29.8017 74.3322 25.7144 78.2682ZM54.0616 61.2433C52.7167 64.1545 49.8688 71.6306 48.1548 71.2114C46.6781 70.862 45.7816 65.2026 47.8648 59.6129C48.9195 56.7949 51.1609 53.4411 52.4794 52.1369C54.6153 50.0408 56.9359 49.3421 57.516 50.2038C58.2016 51.3217 54.9054 59.4266 54.0616 61.2433ZM77.4513 71.1182C76.8712 71.3744 76.3438 71.5607 76.1065 71.421C75.9219 71.3278 76.3438 70.9785 76.3438 70.9785C76.3438 70.9785 79.2708 68.207 80.4311 66.926C81.0903 66.1807 81.8814 65.319 82.7252 64.3408V64.6203C82.7252 67.9741 79.0862 70.2099 77.4513 71.1182ZM95.4881 67.485C95.0661 67.2055 95.1189 66.3438 96.5428 63.6421C97.0966 62.5708 98.3623 60.7774 100.551 59.0773C100.815 59.776 100.973 60.4514 100.947 61.0802C100.92 65.2724 97.5449 66.8328 95.4881 67.485Z"
        fill="#CF649A" />
</svg>